<?xml version="1.0" encoding="UTF-8" standalone="no"?>
<svg
   width="55.860344"
   height="48.473652"
   viewBox="0 0 55.860344 48.473652"
   fill="none"
   version="1.1"
   id="svg1"
   xmlns="http://www.w3.org/2000/svg"
   xmlns:svg="http://www.w3.org/2000/svg">
  <defs
     id="defs1" />
  <path
     d="M 2.8849857,8.293953 H -2.8744797e-7 v 7 H 2.8849857 v -3.5 z m 11.1278053,3.5 1.963769,-2.56397 c -0.533641,-0.60164 -1.235269,-0.93603 -1.963769,-0.93603 z m 22.255609,25.0885 -1.963769,2.5639 c 0.53364,0.6017 1.235186,0.9361 1.963769,0.9361 z m 11.539945,-4.0885 1.94003,-2.5905 -4.825016,-5.3182 v 7.9087 z m 3.709268,4.0885 1.892634,2.6415 2.450095,-2.5837 -2.402699,-2.6483 z m -3.709268,3.9115 h -2.884986 v 7.6797 l 4.77762,-5.0381 z M 2.8849857,33.382453 H -2.8744797e-7 v 7 H 2.8849857 v -3.5 z m 11.1278053,3.5 v 3.5 c 0.7285,0 1.430128,-0.3344 1.963769,-0.9361 z M 36.2684,11.793953 v -3.5 c -0.728583,0 -1.430129,0.33439 -1.963769,0.93603 z m 11.539945,-4 1.916703,-2.61593 L 44.923359,0 v 7.793953 z m 0,8 h -2.884986 v 7.794 l 4.801689,-5.1781 z m 3.709268,-4 1.916703,2.6159 2.425779,-2.6159 -2.425779,-2.61593 z m -48.6326273,0 v 3.5 H 14.012791 v -3.5 -3.5 H 2.8849857 Z m 11.1278053,0 -1.963769,2.564 22.255609,25.0884 1.963769,-2.5639 1.963769,-2.564 L 15.97656,9.229983 Z m 22.255609,25.0885 v 3.5 h 11.539945 v -3.5 -3.5 H 36.2684 Z m 11.539945,0 h 2.884986 v -4.0885 h -2.884986 -2.884986 v 4.0885 z m 0,-4.0885 -1.94003,2.5905 3.709269,4.0884 1.940029,-2.5904 1.94003,-2.5905 -3.709268,-4.0885 z m 3.709268,4.0885 -1.892633,-2.6416 -3.709268,3.9115 1.892633,2.6416 1.892634,2.6416 3.709268,-3.9116 z m -3.709268,3.9115 h 2.884986 v -3.9115 h -2.884986 -2.884986 v 3.9115 z m -44.9233593,-3.9115 v 3.5 H 14.012791 v -3.5 -3.5 H 2.8849857 Z m 11.1278053,0 1.963769,2.5639 22.255609,-25.0884 -1.963769,-2.564 -1.963769,-2.56397 -22.255609,25.08847 z M 36.2684,11.793953 v 3.5 h 11.539945 v -3.5 -3.5 H 36.2684 Z m 11.539945,0 h 2.884986 v -4 h -2.884986 -2.884986 v 4 z m 0,4 1.916703,2.6159 3.709268,-4 -1.916703,-2.6159 -1.916702,-2.61593 -3.709268,4.00003 z m 3.709268,-4 1.916703,-2.61593 -3.709268,-4 -1.916703,2.61593 -1.916702,2.6159 3.709268,4 z m -3.709268,0 h -2.884986 v 4 h 2.884986 2.884986 v -4 z"
     fill="#d9d9d9"
     id="path1"
     style="stroke-width:0.9079" />
</svg>
