<svg width="72" height="72" viewBox="0 0 72 72" fill="none" xmlns="http://www.w3.org/2000/svg">
<rect width="72" height="72" rx="10" fill="black"/>
<path d="M28.5 11C38.165 11 46 18.835 46 28.5C46 33.0945 44.2291 37.2751 41.333 40.3975L60 60H50.667L37.6953 43.3926C35.0233 45.0458 31.873 46 28.5 46C18.835 46 11 38.165 11 28.5C11 18.835 18.835 11 28.5 11ZM28.5 15C21.0442 15 15 21.0442 15 28.5C15 35.9558 21.0442 42 28.5 42C35.9558 42 42 35.9558 42 28.5C42 21.0442 35.9558 15 28.5 15Z" fill="#D9D9D9"/>
</svg>
