<svg width="86" height="49" viewBox="0 0 86 49" fill="none" xmlns="http://www.w3.org/2000/svg">
<path d="M86 49H60.6504L56.9141 40.5938L56.6494 40H28.3506L28.0859 40.5938L24.3496 49H0V0H86V49ZM58.4609 49H26.5391L29.6504 42H55.3496L58.4609 49ZM6 6V38H79V6H6ZM77 8V36H8V8H77ZM22 14C16.4772 14 12 18.4772 12 24C12 29.5228 16.4772 34 22 34C27.5228 34 32 29.5228 32 24C32 18.4772 27.5228 14 22 14ZM63 14C57.4772 14 53 18.4772 53 24C53 29.5228 57.4772 34 63 34C68.5229 34 73 29.5228 73 24C73 18.4772 68.5229 14 63 14ZM34 29H51V19H34V29Z" fill="#D9D9D9"/>
</svg>
